<svg xmlns="http://www.w3.org/2000/svg" width="800" height="400" viewBox="0 0 800 400">
  <defs>
    <style>
      @import url('https://fonts.googleapis.com/css2?family=JetBrains+Mono:wght@400;700&amp;display=swap');
      text { font-family: 'JetBrains Mono', 'Courier New', monospace; }
    </style>
    <linearGradient id="langBar" x1="0%" y1="0%" x2="100%" y2="0%">
      <stop offset="0%" style="stop-color:#3572A5"/>
      <stop offset="40%" style="stop-color:#f7df1e"/>
      <stop offset="70%" style="stop-color:#3178c6"/>
      <stop offset="100%" style="stop-color:#3572A5"/>
    </linearGradient>
  </defs>

  <!-- Background -->
  <rect width="800" height="400" rx="12" ry="12" fill="#0d1117"/>

  <!-- Window chrome -->
  <rect width="800" height="36" rx="12" ry="12" fill="#161b22"/>
  <rect y="24" width="800" height="12" fill="#161b22"/>

  <!-- Traffic light dots -->
  <circle cx="20" cy="18" r="6" fill="#ff5f57"/>
  <circle cx="40" cy="18" r="6" fill="#febc2e"/>
  <circle cx="60" cy="18" r="6" fill="#28c840"/>

  <!-- Window title -->
  <text x="400" y="23" fill="#8b949e" font-size="12" text-anchor="middle" font-family="'JetBrains Mono', monospace">evan@github ~ neofetch</text>

  <!-- Divider line -->
  <line x1="390" y1="46" x2="390" y2="385" stroke="#21262d" stroke-width="1"/>

  <!-- ==================== LEFT COLUMN ==================== -->

  <!-- Pixel-art block letters: EVAN (5×5 grid, 12px cell, 2px gap, 14px step) -->
  <!-- E (lx=20) -->
  <rect x="20"  y="55"  width="12" height="12" rx="2" fill="#58a6ff"/>
  <rect x="34"  y="55"  width="12" height="12" rx="2" fill="#58a6ff"/>
  <rect x="48"  y="55"  width="12" height="12" rx="2" fill="#58a6ff"/>
  <rect x="62"  y="55"  width="12" height="12" rx="2" fill="#58a6ff"/>
  <rect x="76"  y="55"  width="12" height="12" rx="2" fill="#58a6ff"/>
  <rect x="20"  y="69"  width="12" height="12" rx="2" fill="#58a6ff"/>
  <rect x="20"  y="83"  width="12" height="12" rx="2" fill="#58a6ff"/>
  <rect x="34"  y="83"  width="12" height="12" rx="2" fill="#58a6ff"/>
  <rect x="48"  y="83"  width="12" height="12" rx="2" fill="#58a6ff"/>
  <rect x="62"  y="83"  width="12" height="12" rx="2" fill="#58a6ff"/>
  <rect x="20"  y="97"  width="12" height="12" rx="2" fill="#58a6ff"/>
  <rect x="20"  y="111" width="12" height="12" rx="2" fill="#58a6ff"/>
  <rect x="34"  y="111" width="12" height="12" rx="2" fill="#58a6ff"/>
  <rect x="48"  y="111" width="12" height="12" rx="2" fill="#58a6ff"/>
  <rect x="62"  y="111" width="12" height="12" rx="2" fill="#58a6ff"/>
  <rect x="76"  y="111" width="12" height="12" rx="2" fill="#58a6ff"/>
  <!-- V (lx=104) -->
  <rect x="104" y="55"  width="12" height="12" rx="2" fill="#58a6ff"/>
  <rect x="160" y="55"  width="12" height="12" rx="2" fill="#58a6ff"/>
  <rect x="104" y="69"  width="12" height="12" rx="2" fill="#58a6ff"/>
  <rect x="160" y="69"  width="12" height="12" rx="2" fill="#58a6ff"/>
  <rect x="118" y="83"  width="12" height="12" rx="2" fill="#58a6ff"/>
  <rect x="146" y="83"  width="12" height="12" rx="2" fill="#58a6ff"/>
  <rect x="118" y="97"  width="12" height="12" rx="2" fill="#58a6ff"/>
  <rect x="146" y="97"  width="12" height="12" rx="2" fill="#58a6ff"/>
  <rect x="132" y="111" width="12" height="12" rx="2" fill="#58a6ff"/>
  <!-- A (lx=188) -->
  <rect x="202" y="55"  width="12" height="12" rx="2" fill="#58a6ff"/>
  <rect x="216" y="55"  width="12" height="12" rx="2" fill="#58a6ff"/>
  <rect x="230" y="55"  width="12" height="12" rx="2" fill="#58a6ff"/>
  <rect x="188" y="69"  width="12" height="12" rx="2" fill="#58a6ff"/>
  <rect x="244" y="69"  width="12" height="12" rx="2" fill="#58a6ff"/>
  <rect x="188" y="83"  width="12" height="12" rx="2" fill="#58a6ff"/>
  <rect x="202" y="83"  width="12" height="12" rx="2" fill="#58a6ff"/>
  <rect x="216" y="83"  width="12" height="12" rx="2" fill="#58a6ff"/>
  <rect x="230" y="83"  width="12" height="12" rx="2" fill="#58a6ff"/>
  <rect x="244" y="83"  width="12" height="12" rx="2" fill="#58a6ff"/>
  <rect x="188" y="97"  width="12" height="12" rx="2" fill="#58a6ff"/>
  <rect x="244" y="97"  width="12" height="12" rx="2" fill="#58a6ff"/>
  <rect x="188" y="111" width="12" height="12" rx="2" fill="#58a6ff"/>
  <rect x="244" y="111" width="12" height="12" rx="2" fill="#58a6ff"/>
  <!-- N (lx=272) -->
  <rect x="272" y="55"  width="12" height="12" rx="2" fill="#58a6ff"/>
  <rect x="328" y="55"  width="12" height="12" rx="2" fill="#58a6ff"/>
  <rect x="272" y="69"  width="12" height="12" rx="2" fill="#58a6ff"/>
  <rect x="286" y="69"  width="12" height="12" rx="2" fill="#58a6ff"/>
  <rect x="328" y="69"  width="12" height="12" rx="2" fill="#58a6ff"/>
  <rect x="272" y="83"  width="12" height="12" rx="2" fill="#58a6ff"/>
  <rect x="300" y="83"  width="12" height="12" rx="2" fill="#58a6ff"/>
  <rect x="328" y="83"  width="12" height="12" rx="2" fill="#58a6ff"/>
  <rect x="272" y="97"  width="12" height="12" rx="2" fill="#58a6ff"/>
  <rect x="314" y="97"  width="12" height="12" rx="2" fill="#58a6ff"/>
  <rect x="328" y="97"  width="12" height="12" rx="2" fill="#58a6ff"/>
  <rect x="272" y="111" width="12" height="12" rx="2" fill="#58a6ff"/>
  <rect x="328" y="111" width="12" height="12" rx="2" fill="#58a6ff"/>

  <!-- Username line -->
  <text x="20" y="168" font-family="'JetBrains Mono', monospace" font-size="12">
    <tspan fill="#58a6ff" font-weight="bold">evan-johnson</tspan>
    <tspan fill="#8b949e">@</tspan>
    <tspan fill="#58a6ff" font-weight="bold">github</tspan>
  </text>
  <line x1="20" y1="174" x2="185" y2="174" stroke="#58a6ff" stroke-width="1"/>

  <!-- Static info fields -->
  <text x="20" y="194" font-family="'JetBrains Mono', monospace" font-size="12">
    <tspan fill="#58a6ff" font-weight="bold">OS</tspan>
    <tspan fill="#8b949e">: </tspan>
    <tspan fill="#e6edf3">macOS / Debian</tspan>
  </text>
  <text x="20" y="212" font-family="'JetBrains Mono', monospace" font-size="12">
    <tspan fill="#58a6ff" font-weight="bold">Host</tspan>
    <tspan fill="#8b949e">: </tspan>
    <tspan fill="#e6edf3">Prov Inc. · Senior SWE</tspan>
  </text>
  <text x="20" y="230" font-family="'JetBrains Mono', monospace" font-size="12">
    <tspan fill="#58a6ff" font-weight="bold">Shell</tspan>
    <tspan fill="#8b949e">: </tspan>
    <tspan fill="#e6edf3">Python, FastAPI, React</tspan>
  </text>
  <text x="20" y="248" font-family="'JetBrains Mono', monospace" font-size="12">
    <tspan fill="#58a6ff" font-weight="bold">IDE</tspan>
    <tspan fill="#8b949e">: </tspan>
    <tspan fill="#e6edf3">Claude Code · VS Code</tspan>
  </text>
  <text x="20" y="266" font-family="'JetBrains Mono', monospace" font-size="12">
    <tspan fill="#58a6ff" font-weight="bold">Interests</tspan>
    <tspan fill="#8b949e">: </tspan>
    <tspan fill="#e6edf3">AI/LLM, NBA Data Analysis,</tspan>
  </text>
  <text x="20" y="282" font-family="'JetBrains Mono', monospace" font-size="12">
    <tspan fill="#8b949e">           </tspan>
    <tspan fill="#e6edf3">Automation</tspan>
  </text>

  <!-- Color palette blocks -->
  <rect x="20" y="310" width="18" height="14" rx="2" fill="#ff5f57"/>
  <rect x="42" y="310" width="18" height="14" rx="2" fill="#febc2e"/>
  <rect x="64" y="310" width="18" height="14" rx="2" fill="#28c840"/>
  <rect x="86" y="310" width="18" height="14" rx="2" fill="#58a6ff"/>
  <rect x="108" y="310" width="18" height="14" rx="2" fill="#a371f7"/>
  <rect x="130" y="310" width="18" height="14" rx="2" fill="#39d353"/>
  <rect x="152" y="310" width="18" height="14" rx="2" fill="#e6edf3"/>
  <rect x="174" y="310" width="18" height="14" rx="2" fill="#8b949e"/>

  <!-- Updated at -->
  <text x="20" y="378" fill="#484f58" font-size="10" font-family="'JetBrains Mono', monospace">Updated: 2026-04-07 17:03 UTC</text>

  <!-- ==================== RIGHT COLUMN ==================== -->

  <!-- Stats header -->
  <text x="408" y="62" fill="#58a6ff" font-size="12" font-family="'JetBrains Mono', monospace" font-weight="bold">── GitHub Stats ─────────────────</text>

  <!-- Stats rows -->
  <text x="408" y="82" font-family="'JetBrains Mono', monospace" font-size="12">
    <tspan fill="#8b949e">  Repos     : </tspan><tspan fill="#39d353">11</tspan>
  </text>
  <text x="408" y="99" font-family="'JetBrains Mono', monospace" font-size="12">
    <tspan fill="#8b949e">  Commits   : </tspan><tspan fill="#39d353">45</tspan>
  </text>
  <text x="408" y="116" font-family="'JetBrains Mono', monospace" font-size="12">
    <tspan fill="#8b949e">  Stars     : </tspan><tspan fill="#39d353">2</tspan>
  </text>
  <text x="408" y="133" font-family="'JetBrains Mono', monospace" font-size="12">
    <tspan fill="#8b949e">  Followers : </tspan><tspan fill="#39d353">3</tspan>
  </text>
  <text x="408" y="150" font-family="'JetBrains Mono', monospace" font-size="12">
    <tspan fill="#8b949e">  Following : </tspan><tspan fill="#39d353">2</tspan>
  </text>
  <text x="408" y="167" font-family="'JetBrains Mono', monospace" font-size="12">
    <tspan fill="#8b949e">  LOC       : </tspan><tspan fill="#39d353">+0</tspan><tspan fill="#8b949e"> / </tspan><tspan fill="#f85149">-0</tspan>
  </text>

  <!-- Contribution grid header -->
  <text x="408" y="192" fill="#58a6ff" font-size="12" font-family="'JetBrains Mono', monospace" font-weight="bold">── Contributions (12 weeks) ──────</text>

  <!-- Contribution grid placeholder - replaced by Python script -->
    <rect x="408" y="202" width="10" height="10" rx="2" ry="2" fill="#161b22"><title>0 contributions on 2026-01-18</title></rect>
  <rect x="408" y="214" width="10" height="10" rx="2" ry="2" fill="#161b22"><title>0 contributions on 2026-01-19</title></rect>
  <rect x="408" y="226" width="10" height="10" rx="2" ry="2" fill="#161b22"><title>0 contributions on 2026-01-20</title></rect>
  <rect x="408" y="238" width="10" height="10" rx="2" ry="2" fill="#161b22"><title>0 contributions on 2026-01-21</title></rect>
  <rect x="408" y="250" width="10" height="10" rx="2" ry="2" fill="#161b22"><title>0 contributions on 2026-01-22</title></rect>
  <rect x="408" y="262" width="10" height="10" rx="2" ry="2" fill="#161b22"><title>0 contributions on 2026-01-23</title></rect>
  <rect x="408" y="274" width="10" height="10" rx="2" ry="2" fill="#161b22"><title>0 contributions on 2026-01-24</title></rect>
  <rect x="420" y="202" width="10" height="10" rx="2" ry="2" fill="#161b22"><title>0 contributions on 2026-01-25</title></rect>
  <rect x="420" y="214" width="10" height="10" rx="2" ry="2" fill="#161b22"><title>0 contributions on 2026-01-26</title></rect>
  <rect x="420" y="226" width="10" height="10" rx="2" ry="2" fill="#161b22"><title>0 contributions on 2026-01-27</title></rect>
  <rect x="420" y="238" width="10" height="10" rx="2" ry="2" fill="#161b22"><title>0 contributions on 2026-01-28</title></rect>
  <rect x="420" y="250" width="10" height="10" rx="2" ry="2" fill="#161b22"><title>0 contributions on 2026-01-29</title></rect>
  <rect x="420" y="262" width="10" height="10" rx="2" ry="2" fill="#161b22"><title>0 contributions on 2026-01-30</title></rect>
  <rect x="420" y="274" width="10" height="10" rx="2" ry="2" fill="#161b22"><title>0 contributions on 2026-01-31</title></rect>
  <rect x="432" y="202" width="10" height="10" rx="2" ry="2" fill="#161b22"><title>0 contributions on 2026-02-01</title></rect>
  <rect x="432" y="214" width="10" height="10" rx="2" ry="2" fill="#161b22"><title>0 contributions on 2026-02-02</title></rect>
  <rect x="432" y="226" width="10" height="10" rx="2" ry="2" fill="#161b22"><title>0 contributions on 2026-02-03</title></rect>
  <rect x="432" y="238" width="10" height="10" rx="2" ry="2" fill="#161b22"><title>0 contributions on 2026-02-04</title></rect>
  <rect x="432" y="250" width="10" height="10" rx="2" ry="2" fill="#161b22"><title>0 contributions on 2026-02-05</title></rect>
  <rect x="432" y="262" width="10" height="10" rx="2" ry="2" fill="#161b22"><title>0 contributions on 2026-02-06</title></rect>
  <rect x="432" y="274" width="10" height="10" rx="2" ry="2" fill="#161b22"><title>0 contributions on 2026-02-07</title></rect>
  <rect x="444" y="202" width="10" height="10" rx="2" ry="2" fill="#161b22"><title>0 contributions on 2026-02-08</title></rect>
  <rect x="444" y="214" width="10" height="10" rx="2" ry="2" fill="#161b22"><title>0 contributions on 2026-02-09</title></rect>
  <rect x="444" y="226" width="10" height="10" rx="2" ry="2" fill="#161b22"><title>0 contributions on 2026-02-10</title></rect>
  <rect x="444" y="238" width="10" height="10" rx="2" ry="2" fill="#161b22"><title>0 contributions on 2026-02-11</title></rect>
  <rect x="444" y="250" width="10" height="10" rx="2" ry="2" fill="#161b22"><title>0 contributions on 2026-02-12</title></rect>
  <rect x="444" y="262" width="10" height="10" rx="2" ry="2" fill="#161b22"><title>0 contributions on 2026-02-13</title></rect>
  <rect x="444" y="274" width="10" height="10" rx="2" ry="2" fill="#161b22"><title>0 contributions on 2026-02-14</title></rect>
  <rect x="456" y="202" width="10" height="10" rx="2" ry="2" fill="#161b22"><title>0 contributions on 2026-02-15</title></rect>
  <rect x="456" y="214" width="10" height="10" rx="2" ry="2" fill="#161b22"><title>0 contributions on 2026-02-16</title></rect>
  <rect x="456" y="226" width="10" height="10" rx="2" ry="2" fill="#161b22"><title>0 contributions on 2026-02-17</title></rect>
  <rect x="456" y="238" width="10" height="10" rx="2" ry="2" fill="#161b22"><title>0 contributions on 2026-02-18</title></rect>
  <rect x="456" y="250" width="10" height="10" rx="2" ry="2" fill="#161b22"><title>0 contributions on 2026-02-19</title></rect>
  <rect x="456" y="262" width="10" height="10" rx="2" ry="2" fill="#161b22"><title>0 contributions on 2026-02-20</title></rect>
  <rect x="456" y="274" width="10" height="10" rx="2" ry="2" fill="#161b22"><title>0 contributions on 2026-02-21</title></rect>
  <rect x="468" y="202" width="10" height="10" rx="2" ry="2" fill="#161b22"><title>0 contributions on 2026-02-22</title></rect>
  <rect x="468" y="214" width="10" height="10" rx="2" ry="2" fill="#161b22"><title>0 contributions on 2026-02-23</title></rect>
  <rect x="468" y="226" width="10" height="10" rx="2" ry="2" fill="#161b22"><title>0 contributions on 2026-02-24</title></rect>
  <rect x="468" y="238" width="10" height="10" rx="2" ry="2" fill="#161b22"><title>0 contributions on 2026-02-25</title></rect>
  <rect x="468" y="250" width="10" height="10" rx="2" ry="2" fill="#161b22"><title>0 contributions on 2026-02-26</title></rect>
  <rect x="468" y="262" width="10" height="10" rx="2" ry="2" fill="#161b22"><title>0 contributions on 2026-02-27</title></rect>
  <rect x="468" y="274" width="10" height="10" rx="2" ry="2" fill="#161b22"><title>0 contributions on 2026-02-28</title></rect>
  <rect x="480" y="202" width="10" height="10" rx="2" ry="2" fill="#161b22"><title>0 contributions on 2026-03-01</title></rect>
  <rect x="480" y="214" width="10" height="10" rx="2" ry="2" fill="#161b22"><title>0 contributions on 2026-03-02</title></rect>
  <rect x="480" y="226" width="10" height="10" rx="2" ry="2" fill="#006d32"><title>5 contributions on 2026-03-03</title></rect>
  <rect x="480" y="238" width="10" height="10" rx="2" ry="2" fill="#006d32"><title>4 contributions on 2026-03-04</title></rect>
  <rect x="480" y="250" width="10" height="10" rx="2" ry="2" fill="#0e4429"><title>1 contributions on 2026-03-05</title></rect>
  <rect x="480" y="262" width="10" height="10" rx="2" ry="2" fill="#0e4429"><title>1 contributions on 2026-03-06</title></rect>
  <rect x="480" y="274" width="10" height="10" rx="2" ry="2" fill="#161b22"><title>0 contributions on 2026-03-07</title></rect>
  <rect x="492" y="202" width="10" height="10" rx="2" ry="2" fill="#161b22"><title>0 contributions on 2026-03-08</title></rect>
  <rect x="492" y="214" width="10" height="10" rx="2" ry="2" fill="#0e4429"><title>1 contributions on 2026-03-09</title></rect>
  <rect x="492" y="226" width="10" height="10" rx="2" ry="2" fill="#0e4429"><title>1 contributions on 2026-03-10</title></rect>
  <rect x="492" y="238" width="10" height="10" rx="2" ry="2" fill="#0e4429"><title>2 contributions on 2026-03-11</title></rect>
  <rect x="492" y="250" width="10" height="10" rx="2" ry="2" fill="#0e4429"><title>1 contributions on 2026-03-12</title></rect>
  <rect x="492" y="262" width="10" height="10" rx="2" ry="2" fill="#0e4429"><title>1 contributions on 2026-03-13</title></rect>
  <rect x="492" y="274" width="10" height="10" rx="2" ry="2" fill="#161b22"><title>0 contributions on 2026-03-14</title></rect>
  <rect x="504" y="202" width="10" height="10" rx="2" ry="2" fill="#0e4429"><title>1 contributions on 2026-03-15</title></rect>
  <rect x="504" y="214" width="10" height="10" rx="2" ry="2" fill="#0e4429"><title>1 contributions on 2026-03-16</title></rect>
  <rect x="504" y="226" width="10" height="10" rx="2" ry="2" fill="#0e4429"><title>2 contributions on 2026-03-17</title></rect>
  <rect x="504" y="238" width="10" height="10" rx="2" ry="2" fill="#0e4429"><title>1 contributions on 2026-03-18</title></rect>
  <rect x="504" y="250" width="10" height="10" rx="2" ry="2" fill="#0e4429"><title>1 contributions on 2026-03-19</title></rect>
  <rect x="504" y="262" width="10" height="10" rx="2" ry="2" fill="#0e4429"><title>1 contributions on 2026-03-20</title></rect>
  <rect x="504" y="274" width="10" height="10" rx="2" ry="2" fill="#161b22"><title>0 contributions on 2026-03-21</title></rect>
  <rect x="516" y="202" width="10" height="10" rx="2" ry="2" fill="#161b22"><title>0 contributions on 2026-03-22</title></rect>
  <rect x="516" y="214" width="10" height="10" rx="2" ry="2" fill="#0e4429"><title>1 contributions on 2026-03-23</title></rect>
  <rect x="516" y="226" width="10" height="10" rx="2" ry="2" fill="#0e4429"><title>1 contributions on 2026-03-24</title></rect>
  <rect x="516" y="238" width="10" height="10" rx="2" ry="2" fill="#0e4429"><title>1 contributions on 2026-03-25</title></rect>
  <rect x="516" y="250" width="10" height="10" rx="2" ry="2" fill="#161b22"><title>0 contributions on 2026-03-26</title></rect>
  <rect x="516" y="262" width="10" height="10" rx="2" ry="2" fill="#0e4429"><title>1 contributions on 2026-03-27</title></rect>
  <rect x="516" y="274" width="10" height="10" rx="2" ry="2" fill="#161b22"><title>0 contributions on 2026-03-28</title></rect>
  <rect x="528" y="202" width="10" height="10" rx="2" ry="2" fill="#0e4429"><title>3 contributions on 2026-03-29</title></rect>
  <rect x="528" y="214" width="10" height="10" rx="2" ry="2" fill="#0e4429"><title>2 contributions on 2026-03-30</title></rect>
  <rect x="528" y="226" width="10" height="10" rx="2" ry="2" fill="#0e4429"><title>1 contributions on 2026-03-31</title></rect>
  <rect x="528" y="238" width="10" height="10" rx="2" ry="2" fill="#0e4429"><title>1 contributions on 2026-04-01</title></rect>
  <rect x="528" y="250" width="10" height="10" rx="2" ry="2" fill="#0e4429"><title>1 contributions on 2026-04-02</title></rect>
  <rect x="528" y="262" width="10" height="10" rx="2" ry="2" fill="#0e4429"><title>1 contributions on 2026-04-03</title></rect>
  <rect x="528" y="274" width="10" height="10" rx="2" ry="2" fill="#0e4429"><title>1 contributions on 2026-04-04</title></rect>
  <rect x="540" y="202" width="10" height="10" rx="2" ry="2" fill="#0e4429"><title>1 contributions on 2026-04-05</title></rect>
  <rect x="540" y="214" width="10" height="10" rx="2" ry="2" fill="#0e4429"><title>2 contributions on 2026-04-06</title></rect>
  <rect x="540" y="226" width="10" height="10" rx="2" ry="2" fill="#0e4429"><title>3 contributions on 2026-04-07</title></rect>

  <!-- Languages header -->
  <text x="408" y="310" fill="#58a6ff" font-size="12" font-family="'JetBrains Mono', monospace" font-weight="bold">── Top Languages ─────────────────</text>

  <!-- Language bar placeholder - replaced by Python script -->
    <rect x="408" y="322" width="366" height="12" rx="3" fill="#8b949e"/>
  <rect x="412" y="322" width="362" height="12" fill="#8b949e"/>
  <rect x="770" y="322" width="8" height="12" fill="#178600"/>
  <rect x="778" y="322" width="4" height="12" fill="#3572A5"/>
  <rect x="782" y="322" width="1" height="12" rx="3" fill="#f1e05a"/>

  <!-- Language legend placeholder -->
    <circle cx="413" cy="349" r="4" fill="#8b949e"/>  <text x="421" y="354" fill="#8b949e" font-size="10" font-family="'JetBrains Mono', monospace">Jupyter Notebook 96.6%</text>
  <circle cx="575" cy="349" r="4" fill="#178600"/>  <text x="583" y="354" fill="#8b949e" font-size="10" font-family="'JetBrains Mono', monospace">C# 2.0%</text>
  <circle cx="639" cy="349" r="4" fill="#3572A5"/>  <text x="647" y="354" fill="#8b949e" font-size="10" font-family="'JetBrains Mono', monospace">Python 1.1%</text>
  <circle cx="731" cy="349" r="4" fill="#f1e05a"/>  <text x="739" y="354" fill="#8b949e" font-size="10" font-family="'JetBrains Mono', monospace">JavaScript 0.3%</text>

</svg>
